<svg id="Layer_1" data-name="Layer 1" fill="#ffffff" xmlns="http://www.w3.org/2000/svg" viewBox="0 0 59.22 122.28"><defs><style>.cls-1{fill-rule:evenodd;}</style></defs><title>success</title><path class="cls-1" d="M29.73,40.78a9.06,9.06,0,0,1,9.06,9.06c0,5-3.33,9.07-8.34,9.07s-9.78-4.06-9.78-9.07a9.06,9.06,0,0,1,9.06-9.06Zm-25,72.15H18V74.65a4.81,4.81,0,0,1-1.39-1.51l-12.95-22a4.86,4.86,0,1,1,8.38-4.92L21.9,62.94a82,82,0,0,1,15.43,0l10-17a4.86,4.86,0,1,1,8.39,4.92L42.6,73.14a4.8,4.8,0,0,1-1.17,1.35v38.44h13.3a1.86,1.86,0,0,1,1.85,1.86v5.64a1.85,1.85,0,0,1-1.85,1.85h-50a1.85,1.85,0,0,1-1.85-1.85v-5.64a1.86,1.86,0,0,1,1.85-1.86Zm23.49,0h3V93.84a6.47,6.47,0,0,1-3,0v19.09Zm3.14-105a1.63,1.63,0,0,1-3.26,0V1.63a1.63,1.63,0,0,1,3.26,0V7.91Zm9.65,4a1.62,1.62,0,1,1-2.82-1.59L40.7,5.85a1.62,1.62,0,1,1,2.82,1.59L41,11.88ZM21.27,10.29a1.62,1.62,0,1,1-2.82,1.59L15.94,7.44a1.62,1.62,0,1,1,2.82-1.59l2.51,4.44ZM7.63,24.34,9.49,28.7l4.73.43a.37.37,0,0,1,.34.41.38.38,0,0,1-.13.25h0l-3.57,3.12,1.06,4.62a.39.39,0,0,1-.29.46.41.41,0,0,1-.29-.05L7.28,35.51,3.21,37.94a.38.38,0,0,1-.52-.13.38.38,0,0,1,0-.28h0L3.7,32.91.13,29.79a.39.39,0,0,1,0-.54.36.36,0,0,1,.27-.12l4.71-.43,1.86-4.36a.39.39,0,0,1,.5-.2.33.33,0,0,1,.2.2Zm44.66,0,1.86,4.36,4.73.43a.37.37,0,0,1,.34.41.38.38,0,0,1-.13.25h0l-3.57,3.12,1.06,4.62a.39.39,0,0,1-.29.46.41.41,0,0,1-.29-.05l-4.06-2.43-4.07,2.43a.38.38,0,0,1-.52-.13.38.38,0,0,1,0-.28h0l1-4.62-3.57-3.12a.39.39,0,0,1,0-.54.36.36,0,0,1,.27-.12l4.71-.43,1.86-4.36a.39.39,0,0,1,.5-.2.36.36,0,0,1,.2.2ZM30.36,12.4l3.33,7.81,8.46.75a.7.7,0,0,1,.62.74.68.68,0,0,1-.23.45h0l-6.4,5.59L38,36a.66.66,0,0,1-.51.81.64.64,0,0,1-.52-.09l-7.27-4.35-7.29,4.36a.67.67,0,0,1-.93-.23.69.69,0,0,1-.08-.5h0l1.89-8.28-6.4-5.59a.68.68,0,0,1-.06-1,.7.7,0,0,1,.47-.23l8.44-.75,3.34-7.82A.68.68,0,0,1,30,12a.72.72,0,0,1,.36.37Zm-.63,61.26A2.34,2.34,0,1,1,27.39,76a2.34,2.34,0,0,1,2.34-2.34Zm2-2.17a4.92,4.92,0,1,1-4.59.34l-2.3-6.23h3.63l3.26,5.89ZM30.19,65.6h4.46l-1.9,5.16L29.9,65.6Z"/></svg>